<?xml version="1.0" encoding="iso-8859-1"?>
<!-- Generator: Adobe Illustrator 18.0.0, SVG Export Plug-In . SVG Version: 6.00 Build 0)  -->
<!DOCTYPE svg PUBLIC "-//W3C//DTD SVG 1.1//EN" "http://www.w3.org/Graphics/SVG/1.1/DTD/svg11.dtd">
<svg version="1.1" id="Capa_1" xmlns="http://www.w3.org/2000/svg" xmlns:xlink="http://www.w3.org/1999/xlink" x="0px" y="0px"
	 viewBox="0 0 297 297" style="enable-background:new 0 0 297 297;" xml:space="preserve">
<g>
	<path d="M111.626,137.33h25.704V0c-28.874,2.141-55.453,12.517-77.404,28.786C90.369,57.168,108.799,95.981,111.626,137.33z"/>
	<path d="M89.237,137.33c-2.847-35.93-19.355-69.535-46.325-93.834C18.591,67.951,2.709,100.806,0,137.33H89.237z"/>
	<path d="M237.074,28.786C215.123,12.517,188.544,2.141,159.67,0v137.33h25.704C188.201,95.981,206.631,57.168,237.074,28.786z"/>
	<path d="M89.237,159.67H0c2.709,36.523,18.591,69.378,42.912,93.834C69.882,229.205,86.389,195.6,89.237,159.67z"/>
	<path d="M185.374,159.67H159.67V297c28.874-2.141,55.453-12.517,77.404-28.786C206.631,239.832,188.201,201.019,185.374,159.67z"/>
	<path d="M207.763,159.67c2.847,35.93,19.355,69.535,46.325,93.834c24.321-24.456,40.203-57.31,42.912-93.834H207.763z"/>
	<path d="M207.763,137.33H297c-2.709-36.523-18.591-69.378-42.912-93.834C227.118,67.795,210.611,101.4,207.763,137.33z"/>
	<path d="M137.33,159.67h-25.704c-2.827,41.349-21.257,80.162-51.7,108.544c21.951,16.268,48.53,26.644,77.404,28.786V159.67z"/>
</g>
<g>
</g>
<g>
</g>
<g>
</g>
<g>
</g>
<g>
</g>
<g>
</g>
<g>
</g>
<g>
</g>
<g>
</g>
<g>
</g>
<g>
</g>
<g>
</g>
<g>
</g>
<g>
</g>
<g>
</g>
</svg>
