<?xml version="1.0" encoding="iso-8859-1"?>
<!-- Generator: Adobe Illustrator 19.0.0, SVG Export Plug-In . SVG Version: 6.00 Build 0)  -->
<svg version="1.1" id="Capa_1" xmlns="http://www.w3.org/2000/svg" xmlns:xlink="http://www.w3.org/1999/xlink" x="0px" y="0px"
	 viewBox="0 0 370 370" style="enable-background:new 0 0 370 370;" xml:space="preserve">
<path id="XMLID_2_" d="M185,0C82.991,0,0,82.991,0,185s82.991,185,185,185s185-82.991,185-185S287.009,0,185,0z M90,150
	c-13.807,0-25-11.193-25-25s11.193-25,25-25s25,11.193,25,25S103.807,150,90,150z M160,190c-13.807,0-25-11.193-25-25
	s11.193-25,25-25s25,11.193,25,25S173.807,190,160,190z M160,110c-13.807,0-25-11.193-25-25s11.193-25,25-25s25,11.193,25,25
	S173.807,110,160,110z"/>
<g>
</g>
<g>
</g>
<g>
</g>
<g>
</g>
<g>
</g>
<g>
</g>
<g>
</g>
<g>
</g>
<g>
</g>
<g>
</g>
<g>
</g>
<g>
</g>
<g>
</g>
<g>
</g>
<g>
</g>
</svg>
