<svg id="Layer_1" data-name="Layer 1" xmlns="http://www.w3.org/2000/svg" viewBox="0 0 392.42 512"><path d="M392.5,110.9V59.7a8.49,8.49,0,0,0-8.5-8.5H196.3a8.49,8.49,0,0,0-8.5,8.5v51.2a8.49,8.49,0,0,0,8.5,8.5H384A8.43,8.43,0,0,0,392.5,110.9Z" transform="translate(-59.8 0)" fill="#f2f2f2"/><path d="M290.1,315.7a51.2,51.2,0,1,0,51.2,51.2A51.3,51.3,0,0,0,290.1,315.7ZM256,375.5a8.5,8.5,0,1,1,8.5-8.5A8.49,8.49,0,0,1,256,375.5Zm34.1-34.2a25.56,25.56,0,0,0-16.9,6.4A8.5,8.5,0,1,1,262,334.9a42.51,42.51,0,0,1,28.2-10.7,8.55,8.55,0,1,1-.1,17.1Z" transform="translate(-59.8 0)" fill="#f2f2f2"/><path d="M290.1,281.6a85.3,85.3,0,1,0,85.3,85.3A85.38,85.38,0,0,0,290.1,281.6Zm0,153.6a68.3,68.3,0,1,1,68.3-68.3A68.39,68.39,0,0,1,290.1,435.2Z" transform="translate(-59.8 0)" fill="#f2f2f2"/><path d="M452.1,334.4c-.7-31.6-38.5-55.7-60.7-65L373.7,262c-4-1.6-9.5-7.9-11.9-13.3-2.9-6.6-3.3-14.5-3.3-21.3,0-19.7-14.9-36-34.3-39V170.7H401A42.74,42.74,0,0,0,443.7,128V42.7A42.74,42.74,0,0,0,401,0H179.2a42.74,42.74,0,0,0-42.7,42.7V128a42.74,42.74,0,0,0,42.7,42.7H256v17.7c-19.2,3.1-34,19.5-34,39.3v1.5c0,8.4-1.2,14.2-3.8,18.9-2.2,3.9-4.5,5.6-8.6,6.4L174,262.8a34.89,34.89,0,0,0-17.5,10.4H102.4c-12.5,0-23.1,4.1-30.8,11.7s-11.8,18.4-11.8,30.9V486.4c0,15.1,10.5,25.6,25.6,25.6h51.2c8.8,0,16-3.7,20.5-9.7a13.55,13.55,0,0,0,5.1,1.2H426.6a11,11,0,0,0,8.1-3.6C450.1,484.1,452.9,371.5,452.1,334.4Zm-304,5.9c-3.2,8.6-3,17.3-3,26.3V486.5c0,5.7-2.9,8.5-8.5,8.5H85.3c-5.7,0-8.5-2.9-8.5-8.5V460.9h25.6a25.6,25.6,0,0,0,0-51.2H76.8V375.6h25.6a25.6,25.6,0,0,0,0-51.2H76.8v-8.5c0-7.9,2.3-14.4,6.8-18.9s10.9-6.7,18.8-6.7H146c1.5,0,1.4-.3,1.8,1,.4,1.5-.2,4.1-.1,5.8a31.21,31.21,0,0,0,1.1,6.1c1.8,6.2,4.8,11.8,5,18.4S150.4,334.1,148.1,340.3Zm48.2-203.8a25.65,25.65,0,0,1-25.6-25.6V59.7a25.65,25.65,0,0,1,25.6-25.6H384a25.65,25.65,0,0,1,25.6,25.6v51.2A25.65,25.65,0,0,1,384,136.5Zm110.9,85.4a8.5,8.5,0,0,1,0,17H273.1a8.5,8.5,0,0,1,0-17ZM290.1,469.3A102.4,102.4,0,1,1,392.5,366.9,102.47,102.47,0,0,1,290.1,469.3Z" transform="translate(-59.8 0)" fill="#f2f2f2"/></svg>