<svg id="Layer_1" data-name="Layer 1" xmlns="http://www.w3.org/2000/svg" viewBox="0 0 392.42 512"><defs><style>.cls-1{fill:#f2f2f2;}</style></defs><path class="cls-1" d="M332.7,110.9V59.7a8.49,8.49,0,0,0-8.48-8.5H136.5a8.49,8.49,0,0,0-8.5,8.48V110.9a8.49,8.49,0,0,0,8.48,8.5H324.2a8.42,8.42,0,0,0,8.5-8.36Z" transform="translate(0 0)"/><path class="cls-1" d="M230.3,315.7a51.2,51.2,0,1,0,51.2,51.2A51.2,51.2,0,0,0,230.3,315.7Zm-34.1,59.8a8.5,8.5,0,1,1,8.5-8.5,8.51,8.51,0,0,1-8.5,8.5Zm34.1-34.2a25.55,25.55,0,0,0-16.9,6.4,8.5,8.5,0,1,1-11.2-12.8,42.54,42.54,0,0,1,28.2-10.7,8.55,8.55,0,0,1-.1,17.1Z" transform="translate(0 0)"/><path class="cls-1" d="M230.3,281.6a85.3,85.3,0,1,0,85.3,85.3A85.3,85.3,0,0,0,230.3,281.6Zm0,153.6a68.3,68.3,0,1,1,68.3-68.3h0A68.39,68.39,0,0,1,230.3,435.2Z" transform="translate(0 0)"/><path class="cls-1" d="M392.3,334.4c-.7-31.6-38.5-55.7-60.7-65L313.9,262c-4-1.6-9.5-7.9-11.9-13.3-2.9-6.6-3.3-14.5-3.3-21.3,0-19.7-14.9-36-34.3-39V170.7h76.8A42.74,42.74,0,0,0,383.9,128V42.7A42.74,42.74,0,0,0,341.2,0H119.4A42.74,42.74,0,0,0,76.7,42.7V128a42.74,42.74,0,0,0,42.7,42.7h76.8v17.7c-19.2,3.1-34,19.5-34,39.3v1.5c0,8.4-1.2,14.2-3.8,18.9-2.2,3.9-4.5,5.6-8.6,6.4l-35.6,8.3a34.87,34.87,0,0,0-17.5,10.4H42.6c-12.5,0-23.1,4.1-30.8,11.7S0,303.3,0,315.8V486.4C0,501.5,10.5,512,25.6,512H76.8c8.8,0,16-3.7,20.5-9.7a13.46,13.46,0,0,0,5.1,1.2H366.8a11,11,0,0,0,8.1-3.6C390.3,484.1,393.1,371.5,392.3,334.4Zm-304,5.9c-3.2,8.6-3,17.3-3,26.3V486.5c0,5.7-2.9,8.5-8.5,8.5H25.5c-5.7,0-8.5-2.9-8.5-8.5V460.9H42.6a25.6,25.6,0,1,0,0-51.2H17V375.6H42.6a25.6,25.6,0,0,0,0-51.2H17v-8.5c0-7.9,2.3-14.4,6.8-18.9s10.9-6.7,18.8-6.7H86.2c1.5,0,1.4-.3,1.8,1,.4,1.5-.2,4.1-.1,5.8a30.87,30.87,0,0,0,1.1,6.1c1.8,6.2,4.8,11.8,5,18.4S90.6,334.1,88.3,340.3Zm48.2-203.8a25.65,25.65,0,0,1-25.6-25.6V59.7a25.65,25.65,0,0,1,25.6-25.6H324.2a25.65,25.65,0,0,1,25.6,25.6v51.2a25.65,25.65,0,0,1-25.6,25.6Zm110.9,85.4a8.5,8.5,0,0,1,0,17H213.3a8.5,8.5,0,0,1,0-17ZM230.3,469.3A102.4,102.4,0,1,1,332.7,366.9h0A102.47,102.47,0,0,1,230.3,469.3Z" transform="translate(0 0)"/></svg>