<?xml version="1.0" encoding="utf-8"?>
<!-- Generator: Adobe Illustrator 24.1.0, SVG Export Plug-In . SVG Version: 6.00 Build 0)  -->
<svg version="1.1" id="Layer_1" xmlns="http://www.w3.org/2000/svg" xmlns:xlink="http://www.w3.org/1999/xlink" x="0px" y="0px"
	 viewBox="0 0 512 512" style="enable-background:new 0 0 512 512;" xml:space="preserve">
<style type="text/css">
	.st0{fill:#F2F2F2;}
</style>
<path class="st0" d="M0,287v15h63.7c4.5-12.9,14.4-22.8,27.3-27.3v-92.5C40.3,189.4,0,234.2,0,287z"/>
<path class="st0" d="M121,317c0-8.4-6.6-15-15-15s-15,6.6-15,15s6.6,15,15,15S121,325.4,121,317z"/>
<path class="st0" d="M148.3,302H211v-15c0-52.8-39.3-97.6-90-104.8v92.5C133.9,279.2,143.8,289.1,148.3,302z"/>
<path class="st0" d="M106,512c57.9,0,105-47.1,105-105v-75h-62.7c-6,17.4-22.8,30-42.3,30s-36.3-12.6-42.3-30H0v75
	C0,464.9,48.1,512,106,512z"/>
<path class="st0" d="M421,120v182h91V120L466,0L421,120z"/>
<path class="st0" d="M421,422h30c0,33-27,60-60,60s-60-27-60-60V120C331,53.7,277.3,0,211,0S91,53.7,91,120v62.2
	c4.8-0.9,9.9-1.2,15-1.2s10.2,0.3,15,1.2V120c0-49.5,40.5-90,90-90s90,40.5,90,90v302c0,49.5,40.5,90,90,90s90-40.5,90-90h31v-90
	h-91V422z"/>
</svg>
