<?xml version="1.0" encoding="utf-8"?>
<!-- Generator: Adobe Illustrator 24.1.0, SVG Export Plug-In . SVG Version: 6.00 Build 0)  -->
<svg version="1.1" id="Layer_1" xmlns="http://www.w3.org/2000/svg" xmlns:xlink="http://www.w3.org/1999/xlink" x="0px" y="0px"
	 viewBox="0 0 512 512" style="enable-background:new 0 0 512 512;" xml:space="preserve">
<style type="text/css">
	.st0{fill:#F2F2F2;}
</style>
<g>
	<g>
		<g>
			<path class="st0" d="M392.5,110.9V59.7c0-4.7-3.8-8.5-8.5-8.5H196.3c-4.7,0-8.5,3.8-8.5,8.5v51.2c0,4.7,3.8,8.5,8.5,8.5H384
				C388.7,119.5,392.5,115.6,392.5,110.9z"/>
			<path class="st0" d="M290.1,315.7c-28.2,0-51.2,23-51.2,51.2s23,51.2,51.2,51.2s51.2-23,51.2-51.2
				C341.3,338.7,318.4,315.7,290.1,315.7z M256,375.5c-4.7,0-8.5-3.8-8.5-8.5s3.8-8.5,8.5-8.5c4.7,0,8.5,3.8,8.5,8.5
				S260.7,375.5,256,375.5z M290.1,341.3c-6.2,0-12.3,2.3-16.9,6.4c-1.6,1.4-3.6,2.1-5.6,2.1c-2.4,0-4.7-1-6.4-2.9
				c-3.1-3.5-2.8-8.9,0.8-12c7.8-6.9,17.8-10.7,28.2-10.7c4.7,0,8.5,3.8,8.5,8.5C298.7,337.5,294.9,341.3,290.1,341.3z"/>
			<path class="st0" d="M290.1,281.6c-47.1,0-85.3,38.3-85.3,85.3s38.3,85.3,85.3,85.3c47.1,0,85.3-38.3,85.3-85.3
				S337.2,281.6,290.1,281.6z M290.1,435.2c-37.6,0-68.3-30.6-68.3-68.3s30.6-68.3,68.3-68.3s68.3,30.6,68.3,68.3
				S327.8,435.2,290.1,435.2z"/>
			<path class="st0" d="M452.1,334.4c-0.7-31.6-38.5-55.7-60.7-65l-17.7-7.4c-4-1.6-9.5-7.9-11.9-13.3c-2.9-6.6-3.3-14.5-3.3-21.3
				c0-19.7-14.9-36-34.3-39v-17.7h76.8c23.5,0,42.7-19.1,42.7-42.7V42.7c0-23.5-19.1-42.7-42.7-42.7H179.2
				c-23.5,0-42.7,19.1-42.7,42.7V128c0,23.5,19.1,42.7,42.7,42.7H256v17.7c-19.2,3.1-34,19.5-34,39.3v1.5c0,8.4-1.2,14.2-3.8,18.9
				c-2.2,3.9-4.5,5.6-8.6,6.4l-35.6,8.3c-6.8,1.6-12.9,5.4-17.5,10.4h-54h-0.1c-12.5,0-23.1,4.1-30.8,11.7
				c-7.7,7.7-11.8,18.4-11.8,30.9v17.1v34.1v51.2v34.1v34.1c0,15.1,10.5,25.6,25.6,25.6h51.2c8.8,0,16-3.7,20.5-9.7
				c1.7,0.7,3.4,1.2,5.1,1.2h264.4c2.1,0,5.2-0.6,8.1-3.6C450.1,484.1,452.9,371.5,452.1,334.4z M148.1,340.3
				c-3.2,8.6-3,17.3-3,26.3V385v48.4v41.9v11.2c0,5.7-2.9,8.5-8.5,8.5H85.3c-5.7,0-8.5-2.9-8.5-8.5v-25.6h25.6
				c14.1,0,25.6-11.5,25.6-25.6s-11.5-25.6-25.6-25.6H76.8v-34.1h25.6c14.1,0,25.6-11.5,25.6-25.6s-11.5-25.6-25.6-25.6H76.8v-8.5
				c0-7.9,2.3-14.4,6.8-18.9c4.4-4.4,10.9-6.7,18.8-6.7H137c3,0,6,0,9,0c1.5,0,1.4-0.3,1.8,1c0.4,1.5-0.2,4.1-0.1,5.8
				c0.2,2.1,0.5,4.1,1.1,6.1c1.8,6.2,4.8,11.8,5,18.4C154,328.2,150.4,334.1,148.1,340.3z M196.3,136.5c-14.1,0-25.6-11.5-25.6-25.6
				V59.7c0-14.1,11.5-25.6,25.6-25.6H384c14.1,0,25.6,11.5,25.6,25.6v51.2c0,14.1-11.5,25.6-25.6,25.6H196.3z M307.2,221.9
				c4.7,0,8.5,3.8,8.5,8.5s-3.8,8.5-8.5,8.5h-34.1c-4.7,0-8.5-3.8-8.5-8.5s3.8-8.5,8.5-8.5H307.2z M290.1,469.3
				c-56.5,0-102.4-45.9-102.4-102.4s45.9-102.4,102.4-102.4s102.4,45.9,102.4,102.4S346.6,469.3,290.1,469.3z"/>
		</g>
	</g>
</g>
</svg>
