<?xml version="1.0" encoding="utf-8"?>
<!-- Generator: Adobe Illustrator 24.1.0, SVG Export Plug-In . SVG Version: 6.00 Build 0)  -->
<svg version="1.1" id="Capa_1" xmlns="http://www.w3.org/2000/svg" xmlns:xlink="http://www.w3.org/1999/xlink" x="0px" y="0px"
	 viewBox="0 0 512 512" style="enable-background:new 0 0 512 512;" xml:space="preserve">
<style type="text/css">
	.st0{fill:#F2F2F2;}
</style>
<g transform="translate(-1)">
	<g>
		<g>
			<path class="st0" d="M504.2,370.8H9.8v42.5c-0.3,5.3,3.5,9.9,8.8,10.5h178.6l-17.6,70.6h-19.8c-4.9,0-8.8,4-8.8,8.8
				c0,4.9,4,8.8,8.8,8.8h194.2c4.9,0,8.8-4,8.8-8.8c0-4.9-4-8.8-8.8-8.8h-19.8l-17.6-70.6h178.6c5.3-0.6,9.2-5.2,8.8-10.5V370.8z"/>
			<path class="st0" d="M89.3,185.4h8.8c4.9,0,8.8,4,8.8,8.8v40.5l46.7-46.7c1.7-1.7,3.9-2.6,6.2-2.6h141.2
				c14.6,0,26.5-11.9,26.5-26.5V26.5c0-14.6-11.9-26.5-26.5-26.5H80.4C65.8,0,54,11.9,54,26.5v123.6C54,169.6,69.8,185.4,89.3,185.4
				z M257,79.4h26.5c4.9,0,8.8,4,8.8,8.8c0,4.9-4,8.8-8.8,8.8H257c-4.9,0-8.8-4-8.8-8.8C248.2,83.4,252.1,79.4,257,79.4z
				 M195.2,79.4h26.5c4.9,0,8.8,4,8.8,8.8c0,4.9-4,8.8-8.8,8.8h-26.5c-4.9,0-8.8-4-8.8-8.8C186.4,83.4,190.3,79.4,195.2,79.4z
				 M151.1,53c0-4.9,4-8.8,8.8-8.8c4.9,0,8.8,4,8.8,8.8v44.1c0,4.9-4,8.8-8.8,8.8c-4.9,0-8.8-4-8.8-8.8V53z M153.6,117.3
				c0.9-0.8,1.8-1.4,2.9-1.9c3.3-1.3,7-0.6,9.6,1.9c1.6,1.7,2.5,3.9,2.6,6.3c0,0.6-0.1,1.2-0.2,1.8c-0.1,0.6-0.3,1.1-0.5,1.6
				c-0.2,0.5-0.4,1.1-0.8,1.5c-0.3,0.5-0.7,1-1.1,1.4c-1.7,1.6-3.9,2.5-6.3,2.6c-1.2,0-2.3-0.3-3.4-0.7c-1.1-0.4-2.1-1.1-2.9-1.9
				c-0.4-0.4-0.8-0.9-1.1-1.4c-0.4-0.5-0.6-1-0.8-1.5c-0.3-0.5-0.4-1-0.5-1.6c-0.1-0.6-0.2-1.2-0.2-1.8
				C151.1,121.2,152,119,153.6,117.3z M83,82l35.3-35.3c3.5-3.4,9-3.4,12.4,0.1c3.4,3.4,3.4,9,0.1,12.4l-29.1,29.1l29.1,29.1
				c2.3,2.2,3.1,5.5,2.3,8.5c-0.8,3.1-3.2,5.5-6.3,6.3c-3.1,0.8-6.3-0.1-8.5-2.3L83,94.5c-1.7-1.7-2.6-3.9-2.6-6.2
				C80.4,85.9,81.4,83.7,83,82z"/>
			<path class="st0" d="M9.8,353.1h494.3V45.8c0.4-5.3-3.5-9.9-8.8-10.5H345.3v123.6c0,24.4-19.8,44.1-44.1,44.1H163.6l-44.1,44.1
				h75.8c4.9,0,8.8,4,8.8,8.8s-4,8.8-8.8,8.8H80.4c-4.9,0-8.8-4-8.8-8.8s4-8.8,8.8-8.8h8.8V203c-29.2,0-52.9-23.7-53-53V35.3H18.7
				c-5.3,0.6-9.2,5.2-8.8,10.5L9.8,353.1L9.8,353.1z M265.8,335.4h-44.1c-4.9,0-8.8-4-8.8-8.8c0-4.9,4-8.8,8.8-8.8h44.1
				c4.9,0,8.8,4,8.8,8.8C274.7,331.5,270.7,335.4,265.8,335.4z M327.6,335.4h-26.5c-4.9,0-8.8-4-8.8-8.8c0-4.9,4-8.8,8.8-8.8h26.5
				c4.9,0,8.8,4,8.8,8.8C336.4,331.5,332.5,335.4,327.6,335.4z M336.4,291.3c0-4.9,4-8.8,8.8-8.8h44.1c4.9,0,8.8,4,8.8,8.8
				c0,4.9-4,8.8-8.8,8.8h-44.1C340.4,300.1,336.4,296.2,336.4,291.3z M415.9,335.4h-53c-4.9,0-8.8-4-8.8-8.8c0-4.9,4-8.8,8.8-8.8h53
				c4.9,0,8.8,4,8.8,8.8C424.7,331.5,420.8,335.4,415.9,335.4z M477.7,335.4h-26.5c-4.9,0-8.8-4-8.8-8.8c0-4.9,4-8.8,8.8-8.8h26.5
				c4.9,0,8.8,4,8.8,8.8C486.5,331.5,482.6,335.4,477.7,335.4z M477.7,300.1h-53c-4.9,0-8.8-4-8.8-8.8c0-4.9,4-8.8,8.8-8.8h53
				c4.9,0,8.8,4,8.8,8.8C486.5,296.2,482.6,300.1,477.7,300.1z M460,247.2h17.7c4.9,0,8.8,4,8.8,8.8s-4,8.8-8.8,8.8H460
				c-4.9,0-8.8-4-8.8-8.8S455.2,247.2,460,247.2z M389.4,247.2h35.3c4.9,0,8.8,4,8.8,8.8s-4,8.8-8.8,8.8h-35.3c-4.9,0-8.8-4-8.8-8.8
				S384.5,247.2,389.4,247.2z M327.6,247.2h26.5c4.9,0,8.8,4,8.8,8.8s-4,8.8-8.8,8.8h-26.5c-4.9,0-8.8-4-8.8-8.8
				S322.7,247.2,327.6,247.2z M310,282.5c4.9,0,8.8,4,8.8,8.8c0,4.9-4,8.8-8.8,8.8h-35.3c-4.9,0-8.8-4-8.8-8.8c0-4.9,4-8.8,8.8-8.8
				H310z M230.5,247.2h61.8c4.9,0,8.8,4,8.8,8.8s-4,8.8-8.8,8.8h-61.8c-4.9,0-8.8-4-8.8-8.8S225.6,247.2,230.5,247.2z M195.2,282.5
				h44.1c4.9,0,8.8,4,8.8,8.8c0,4.9-4,8.8-8.8,8.8h-44.1c-4.9,0-8.8-4-8.8-8.8S190.3,282.5,195.2,282.5z M195.2,326.6
				c0,4.9-4,8.8-8.8,8.8h-35.3c-4.9,0-8.8-4-8.8-8.8c0-4.9,4-8.8,8.8-8.8h35.3C191.3,317.8,195.2,321.7,195.2,326.6z M106.9,282.5
				h53c4.9,0,8.8,4,8.8,8.8c0,4.9-4,8.8-8.8,8.8h-53c-4.9,0-8.8-4-8.8-8.8S102.1,282.5,106.9,282.5z M80.4,317.8h35.3
				c4.9,0,8.8,4,8.8,8.8c0,4.9-4,8.8-8.8,8.8H80.4c-4.9,0-8.8-4-8.8-8.8C71.6,321.7,75.6,317.8,80.4,317.8z M36.3,247.2h8.8
				c4.9,0,8.8,4,8.8,8.8s-4,8.8-8.8,8.8h-8.8c-4.9,0-8.8-4-8.8-8.8S31.4,247.2,36.3,247.2z M36.3,282.5h8.8c4.9,0,8.8,4,8.8,8.8
				c0,4.9-4,8.8-8.8,8.8h-8.8c-4.9,0-8.8-4-8.8-8.8C27.5,286.4,31.4,282.5,36.3,282.5z M36.3,317.8h8.8c4.9,0,8.8,4,8.8,8.8
				c0,4.9-4,8.8-8.8,8.8h-8.8c-4.9,0-8.8-4-8.8-8.8C27.5,321.7,31.4,317.8,36.3,317.8z"/>
		</g>
	</g>
</g>
</svg>
